<mxfile host="app.diagrams.net" agent="Mozilla/5.0 (Windows NT 10.0; Win64; x64) AppleWebKit/537.36 (KHTML, like Gecko) Chrome/134.0.0.0 Safari/537.36 Edg/134.0.0.0" version="26.1.3">
  <diagram id="C5RBs43oDa-KdzZeNtuy" name="Page-1">
    <mxGraphModel dx="1026" dy="463" grid="1" gridSize="10" guides="1" tooltips="1" connect="1" arrows="1" fold="1" page="1" pageScale="1" pageWidth="827" pageHeight="1169" math="0" shadow="0">
      <root>
        <mxCell id="WIyWlLk6GJQsqaUBKTNV-0" />
        <mxCell id="WIyWlLk6GJQsqaUBKTNV-1" parent="WIyWlLk6GJQsqaUBKTNV-0" />
        <mxCell id="LRxcobVmVdx7Q7Iu-9XW-4" value="Pool" style="swimlane;childLayout=stackLayout;resizeParent=1;resizeParentMax=0;horizontal=1;startSize=20;horizontalStack=0;html=1;" vertex="1" parent="WIyWlLk6GJQsqaUBKTNV-1">
          <mxGeometry x="170" y="50" width="480" height="380" as="geometry" />
        </mxCell>
        <mxCell id="LRxcobVmVdx7Q7Iu-9XW-5" value="Lane 1" style="swimlane;startSize=20;horizontal=0;html=1;" vertex="1" parent="LRxcobVmVdx7Q7Iu-9XW-4">
          <mxGeometry y="20" width="480" height="120" as="geometry" />
        </mxCell>
        <mxCell id="LRxcobVmVdx7Q7Iu-9XW-6" value="Lane 2" style="swimlane;startSize=20;horizontal=0;html=1;" vertex="1" parent="LRxcobVmVdx7Q7Iu-9XW-4">
          <mxGeometry y="140" width="480" height="120" as="geometry" />
        </mxCell>
        <mxCell id="LRxcobVmVdx7Q7Iu-9XW-7" value="Lane 3" style="swimlane;startSize=20;horizontal=0;html=1;" vertex="1" parent="LRxcobVmVdx7Q7Iu-9XW-4">
          <mxGeometry y="260" width="480" height="120" as="geometry" />
        </mxCell>
      </root>
    </mxGraphModel>
  </diagram>
</mxfile>
